<svg xmlns="http://www.w3.org/2000/svg" width="1024" height="1024" viewBox="0 0 1024 1024">
<g>
<path d="M 418.76 460.94 C406.29,463.74 398.36,462.86 387.34,457.47 C369.69,448.83 358.87,425.33 363.09,404.80 C364.43,398.31 370.18,386.24 373.82,382.30 C385.89,369.22 403.22,363.91 418.75,368.52 C438.02,374.24 452.00,393.75 452.00,414.91 C452.00,436.25 437.14,456.82 418.76,460.94 ZM 632.42 459.27 C615.57,466.00 598.63,462.34 585.72,449.17 C576.83,440.10 572.00,428.30 572.00,415.63 C572.00,389.67 589.24,369.12 612.50,367.36 C634.27,365.71 651.75,377.95 658.65,399.69 C661.37,408.25 661.76,419.55 659.61,427.63 C655.90,441.58 645.02,454.23 632.42,459.27 Z" fill="rgb(67,99,124)"/>
<path d="M 543.50 852.12 C536.44,853.53 528.21,854.22 515.50,854.47 C496.53,854.84 495.21,854.76 482.50,852.46 C464.07,849.12 455.79,846.65 441.66,840.27 C416.57,828.93 399.51,814.62 378.93,787.65 C372.60,779.37 369.42,776.52 363.50,773.87 C353.46,769.36 346.29,771.05 333.75,780.86 C322.77,789.44 306.79,799.63 296.86,804.37 C271.08,816.69 242.61,818.35 221.82,808.74 C213.04,804.69 208.14,800.58 203.09,793.07 C197.66,784.98 195.83,779.58 195.25,769.93 C194.57,758.41 195.22,755.81 207.50,721.50 C217.09,694.71 223.14,676.05 226.97,661.50 C241.86,604.94 248.64,553.37 252.01,471.00 C253.68,430.17 255.08,411.77 257.60,397.50 C263.57,363.73 270.42,343.15 286.06,312.00 C299.68,284.88 327.75,252.05 354.29,232.19 C400.14,197.90 452.19,181.04 512.33,181.01 C539.77,181.00 565.40,184.89 591.50,193.05 C637.72,207.49 674.41,232.05 707.92,270.99 C732.88,299.99 751.80,338.98 761.52,381.42 C766.85,404.74 768.60,421.94 770.49,469.76 C773.57,547.93 779.53,596.69 792.65,651.00 C797.89,672.71 803.69,690.82 815.54,722.50 C827.43,754.29 829.36,761.63 828.81,772.93 C828.46,780.29 827.92,782.39 825.04,787.79 C819.13,798.85 806.25,808.64 792.00,812.91 C777.94,817.12 756.45,815.75 737.00,809.39 C726.02,805.80 693.20,786.75 684.49,778.91 C681.57,776.29 673.86,773.08 668.84,772.40 C663.84,771.73 655.10,774.61 651.00,778.28 C649.62,779.51 644.48,785.47 639.56,791.51 C626.73,807.30 618.14,816.24 607.56,824.82 C599.64,831.24 575.24,843.62 564.00,846.92 C561.53,847.64 558.15,848.66 556.50,849.18 C554.85,849.71 549.00,851.03 543.50,852.12 ZM 418.76 460.94 C437.14,456.82 452.00,436.25 452.00,414.91 C452.00,393.75 438.02,374.24 418.75,368.52 C403.22,363.91 385.89,369.22 373.82,382.30 C370.18,386.24 364.43,398.31 363.09,404.80 C358.87,425.33 369.69,448.83 387.34,457.47 C398.36,462.86 406.29,463.74 418.76,460.94 ZM 632.42 459.27 C645.02,454.23 655.90,441.58 659.61,427.63 C661.76,419.55 661.37,408.25 658.65,399.69 C651.75,377.95 634.27,365.71 612.50,367.36 C589.24,369.12 572.00,389.67 572.00,415.63 C572.00,428.30 576.83,440.10 585.72,449.17 C598.63,462.34 615.57,466.00 632.42,459.27 Z" fill="rgb(143,180,191)"/>
</g>
</svg>